<svg width="131" height="45" viewBox="0 0 131 45" fill="none" xmlns="http://www.w3.org/2000/svg">
<path d="M16.5776 5.752C16.5776 4.472 16.1776 3.544 15.3776 2.968C14.5936 2.376 13.6096 2.08 12.4256 2.08C12.1056 2.08 11.7776 2.088 11.4416 2.104C11.1056 2.104 10.7696 2.104 10.4336 2.104C10.2736 2.104 10.1136 2.152 9.95359 2.248C9.79359 2.344 9.71359 2.48 9.71359 2.656V9.472C10.0656 9.728 10.4976 9.88 11.0096 9.928C11.5216 9.976 11.9776 10 12.3776 10C13.7536 10 14.7936 9.632 15.4976 8.896C16.2176 8.16 16.5776 7.112 16.5776 5.752ZM19.2176 5.68C19.2176 6.72 19.0176 7.568 18.6176 8.224C18.2336 8.88 17.7136 9.392 17.0576 9.76C16.4016 10.128 15.6576 10.384 14.8256 10.528C14.0096 10.656 13.1696 10.72 12.3056 10.72C11.8736 10.72 11.4416 10.696 11.0096 10.648C10.5776 10.6 10.1536 10.544 9.73759 10.48V17.656C9.73759 17.896 9.84159 18.056 10.0496 18.136C10.2576 18.216 10.4896 18.256 10.7456 18.256C11.0016 18.256 11.2096 18.256 11.3696 18.256C11.4656 18.256 11.5616 18.256 11.6576 18.256C11.7696 18.24 11.8736 18.232 11.9696 18.232C12.1136 18.232 12.1856 18.296 12.1856 18.424C12.1856 18.632 12.1696 18.776 12.1376 18.856C12.1056 18.92 11.9776 18.952 11.7536 18.952C11.2096 18.952 10.6736 18.936 10.1456 18.904C9.61759 18.872 9.08959 18.856 8.56159 18.856C8.01759 18.856 7.46559 18.88 6.90559 18.928C6.36159 18.96 5.81759 18.976 5.27359 18.976C5.11359 18.976 5.03359 18.872 5.03359 18.664C5.03359 18.568 5.04959 18.48 5.08159 18.4C5.11359 18.32 5.19359 18.28 5.32159 18.28C5.51359 18.28 5.70559 18.288 5.89759 18.304C6.08959 18.304 6.28159 18.304 6.47359 18.304C6.66559 18.304 6.83359 18.256 6.97759 18.16C7.13759 18.064 7.22559 17.912 7.24159 17.704C7.27359 17.416 7.28159 17.128 7.26559 16.84C7.26559 16.536 7.26559 16.24 7.26559 15.952C7.26559 15.376 7.26559 14.8 7.26559 14.224C7.26559 13.632 7.26559 13.048 7.26559 12.472V8.272C7.26559 7.328 7.25759 6.392 7.24159 5.464C7.24159 4.52 7.24159 3.584 7.24159 2.656C7.24159 2.368 7.09759 2.2 6.80959 2.152C6.53759 2.088 6.29759 2.056 6.08959 2.056C5.94559 2.056 5.80159 2.064 5.65759 2.08C5.51359 2.08 5.37759 2.08 5.24959 2.08C5.13759 2.08 5.07359 2.032 5.05759 1.936C5.05759 1.824 5.05759 1.736 5.05759 1.672C5.05759 1.608 5.07359 1.552 5.10559 1.504C5.13759 1.44 5.18559 1.408 5.24959 1.408C5.77759 1.408 6.30559 1.424 6.83359 1.456C7.36159 1.488 7.89759 1.504 8.44159 1.504C9.27359 1.504 10.1056 1.488 10.9376 1.456C11.7696 1.424 12.6016 1.408 13.4336 1.408C14.1056 1.408 14.7776 1.48 15.4496 1.624C16.1376 1.768 16.7616 2.008 17.3216 2.344C17.8976 2.68 18.3536 3.12 18.6896 3.664C19.0416 4.208 19.2176 4.88 19.2176 5.68ZM30.7142 12.664C30.7142 11.976 30.6582 11.288 30.5462 10.6C30.4502 9.896 30.2582 9.248 29.9702 8.656C29.6982 8.064 29.2982 7.592 28.7702 7.24C28.2422 6.872 27.5542 6.688 26.7062 6.688C25.9062 6.688 25.2502 6.88 24.7382 7.264C24.2422 7.648 23.8502 8.144 23.5622 8.752C23.2902 9.36 23.0982 10.016 22.9862 10.72C22.8902 11.424 22.8422 12.088 22.8422 12.712C22.8422 13.4 22.8902 14.088 22.9862 14.776C23.0982 15.464 23.2982 16.088 23.5862 16.648C23.8742 17.192 24.2822 17.632 24.8102 17.968C25.3542 18.304 26.0502 18.472 26.8982 18.472C27.7302 18.472 28.3942 18.296 28.8902 17.944C29.4022 17.592 29.7862 17.128 30.0422 16.552C30.3142 15.976 30.4902 15.352 30.5702 14.68C30.6662 13.992 30.7142 13.32 30.7142 12.664ZM33.1862 12.736C33.1862 13.936 32.8982 15.016 32.3222 15.976C31.7622 16.936 30.9942 17.696 30.0182 18.256C29.0582 18.816 27.9782 19.096 26.7782 19.096C25.6102 19.096 24.5542 18.816 23.6102 18.256C22.6662 17.68 21.9142 16.92 21.3542 15.976C20.7942 15.016 20.5142 13.952 20.5142 12.784C20.5142 11.584 20.7862 10.48 21.3302 9.472C21.8742 8.448 22.6182 7.624 23.5622 7C24.5222 6.376 25.6262 6.064 26.8742 6.064C28.2182 6.064 29.3622 6.352 30.3062 6.928C31.2502 7.488 31.9622 8.272 32.4422 9.28C32.9382 10.272 33.1862 11.424 33.1862 12.736ZM41.853 18.688C41.853 18.768 41.829 18.848 41.781 18.928C41.749 18.992 41.685 19.024 41.589 19.024C41.093 19.024 40.589 19.016 40.077 19C39.565 18.968 39.053 18.952 38.541 18.952H37.701C37.365 18.952 37.029 18.968 36.693 19C36.357 19.016 36.021 19.024 35.685 19.024C35.621 19.024 35.573 19 35.541 18.952C35.525 18.888 35.517 18.832 35.517 18.784C35.517 18.736 35.517 18.688 35.517 18.64C35.517 18.592 35.525 18.544 35.541 18.496C35.573 18.432 35.661 18.4 35.805 18.4C35.965 18.384 36.125 18.384 36.285 18.4C36.461 18.4 36.573 18.4 36.621 18.4C36.845 18.4 37.045 18.352 37.221 18.256C37.397 18.144 37.485 17.96 37.485 17.704C37.485 16.472 37.493 15.248 37.509 14.032C37.525 12.8 37.533 11.576 37.533 10.36C37.533 9.112 37.525 7.864 37.509 6.616C37.509 5.352 37.509 4.096 37.509 2.848C37.509 2.736 37.501 2.616 37.485 2.488C37.469 2.344 37.421 2.232 37.341 2.152C37.277 2.072 37.213 2.032 37.149 2.032C37.085 2.016 37.005 2.008 36.909 2.008C36.621 2.008 36.333 2.056 36.045 2.152C35.773 2.248 35.501 2.296 35.229 2.296C35.053 2.296 34.965 2.192 34.965 1.984C34.965 1.856 35.061 1.768 35.253 1.72C35.461 1.672 35.621 1.64 35.733 1.624C36.293 1.496 36.901 1.352 37.557 1.192C38.213 1.032 38.805 0.847999 39.333 0.639999C39.365 0.639999 39.397 0.631999 39.429 0.615999C39.461 0.599999 39.485 0.592 39.501 0.592C39.597 0.592 39.653 0.624 39.669 0.688C39.701 0.751999 39.717 0.823999 39.717 0.904C39.717 1.352 39.709 1.8 39.693 2.248C39.693 2.68 39.693 3.12 39.693 3.568V10.288C39.693 11.52 39.701 12.76 39.717 14.008C39.733 15.24 39.741 16.472 39.741 17.704C39.741 17.96 39.845 18.144 40.053 18.256C40.277 18.352 40.493 18.4 40.701 18.4C40.877 18.4 41.045 18.392 41.205 18.376C41.365 18.36 41.525 18.352 41.685 18.352C41.765 18.352 41.813 18.4 41.829 18.496C41.845 18.576 41.853 18.64 41.853 18.688ZM51.2778 16.192C51.2138 15.472 51.1738 14.752 51.1578 14.032C51.1578 13.296 51.1498 12.56 51.1338 11.824H50.7978C50.3018 11.824 49.7498 11.904 49.1418 12.064C48.5498 12.208 47.9818 12.432 47.4378 12.736C46.8938 13.04 46.4458 13.424 46.0938 13.888C45.7578 14.336 45.5898 14.856 45.5898 15.448C45.5898 16.216 45.8058 16.8 46.2378 17.2C46.6698 17.584 47.2538 17.776 47.9898 17.776C48.3418 17.776 48.7258 17.696 49.1418 17.536C49.5578 17.36 49.9578 17.152 50.3418 16.912C50.7258 16.672 51.0378 16.432 51.2778 16.192ZM55.4778 17.728C55.4778 17.792 55.4698 17.84 55.4538 17.872C55.2938 18.224 55.0218 18.496 54.6378 18.688C54.2698 18.864 53.9018 18.952 53.5338 18.952C52.8618 18.952 52.3738 18.76 52.0698 18.376C51.7818 17.976 51.5498 17.488 51.3738 16.912C50.7658 17.472 50.0938 17.944 49.3578 18.328C48.6218 18.696 47.8298 18.88 46.9818 18.88C46.3898 18.88 45.8298 18.768 45.3018 18.544C44.7898 18.304 44.3738 17.96 44.0538 17.512C43.7338 17.064 43.5738 16.52 43.5738 15.88C43.5738 15.208 43.7418 14.632 44.0778 14.152C44.4298 13.656 44.8698 13.24 45.3978 12.904C45.9418 12.552 46.5178 12.272 47.1258 12.064C47.7498 11.84 48.3338 11.672 48.8778 11.56C49.2458 11.48 49.6218 11.408 50.0058 11.344C50.3898 11.28 50.7658 11.216 51.1338 11.152C51.1338 10.704 51.1098 10.184 51.0618 9.592C51.0298 9 50.9098 8.512 50.7018 8.128C50.4938 7.76 50.2138 7.432 49.8618 7.144C49.5098 6.856 49.1178 6.712 48.6858 6.712C47.9498 6.712 47.3738 6.904 46.9578 7.288C46.5418 7.672 46.2458 8.216 46.0698 8.92C46.0538 9 46.0378 9.088 46.0218 9.184C46.0218 9.264 46.0138 9.344 45.9978 9.424C45.9818 9.52 45.9178 9.608 45.8058 9.688C45.7098 9.752 45.6058 9.784 45.4938 9.784C45.1898 9.784 44.9098 9.712 44.6538 9.568C44.4138 9.424 44.2938 9.184 44.2938 8.848C44.2938 8.656 44.3258 8.488 44.3898 8.344C44.5978 7.848 44.9338 7.44 45.3978 7.12C45.8618 6.784 46.3738 6.528 46.9338 6.352C47.5098 6.176 48.0458 6.088 48.5418 6.088C49.4058 6.088 50.1898 6.248 50.8938 6.568C51.5978 6.888 52.1578 7.36 52.5738 7.984C53.0058 8.592 53.2218 9.36 53.2218 10.288C53.2218 11.328 53.2138 12.376 53.1978 13.432C53.1978 14.488 53.2298 15.544 53.2938 16.6C53.3098 16.952 53.3818 17.264 53.5098 17.536C53.6378 17.792 53.9018 17.92 54.3018 17.92C54.5098 17.92 54.7258 17.872 54.9498 17.776C55.1898 17.664 55.3418 17.608 55.4058 17.608C55.4538 17.608 55.4778 17.648 55.4778 17.728ZM66.0845 8.32C66.0845 8.48 66.0205 8.632 65.8925 8.776C65.7805 8.904 65.6365 8.968 65.4605 8.968C65.2205 8.968 65.0445 8.888 64.9325 8.728C64.8365 8.568 64.7485 8.384 64.6685 8.176C64.6045 7.968 64.5005 7.784 64.3565 7.624C64.2125 7.464 63.9725 7.384 63.6365 7.384C63.5725 7.384 63.5085 7.384 63.4445 7.384C63.3965 7.384 63.3405 7.392 63.2765 7.408C63.0045 7.456 62.7085 7.624 62.3885 7.912C62.0685 8.2 61.7565 8.544 61.4525 8.944C61.1645 9.328 60.9245 9.712 60.7325 10.096C60.5405 10.48 60.4365 10.8 60.4205 11.056C60.4045 11.312 60.3965 11.568 60.3965 11.824C60.3965 12.064 60.3965 12.304 60.3965 12.544C60.3965 13.408 60.3965 14.272 60.3965 15.136C60.4125 16 60.4205 16.856 60.4205 17.704C60.4205 17.944 60.5165 18.12 60.7085 18.232C60.9165 18.328 61.1245 18.376 61.3325 18.376C61.4925 18.376 61.6525 18.368 61.8125 18.352C61.9725 18.336 62.1325 18.328 62.2925 18.328C62.3725 18.328 62.4285 18.368 62.4605 18.448C62.4925 18.512 62.5085 18.576 62.5085 18.64C62.5085 18.896 62.3805 19.024 62.1245 19.024C61.6445 19.024 61.1645 19.016 60.6845 19C60.2045 18.968 59.7245 18.952 59.2445 18.952C58.7485 18.952 58.2445 18.968 57.7325 19C57.2365 19.032 56.7325 19.048 56.2205 19.048C56.1565 19.048 56.1085 19 56.0765 18.904C56.0605 18.808 56.0525 18.728 56.0525 18.664C56.0525 18.504 56.1165 18.416 56.2445 18.4C56.4205 18.368 56.6045 18.36 56.7965 18.376C56.9885 18.392 57.1645 18.4 57.3245 18.4C57.5645 18.4 57.7565 18.352 57.9005 18.256C58.0605 18.144 58.1485 17.96 58.1645 17.704C58.1965 17.192 58.2125 16.672 58.2125 16.144C58.2285 15.616 58.2365 15.088 58.2365 14.56V12.232C58.2205 11.544 58.2125 10.864 58.2125 10.192C58.2285 9.504 58.2045 8.824 58.1405 8.152C58.1245 7.832 58.0365 7.608 57.8765 7.48C57.7165 7.336 57.4765 7.264 57.1565 7.264C57.0285 7.264 56.8925 7.28 56.7485 7.312C56.6205 7.328 56.4845 7.336 56.3405 7.336C56.2125 7.336 56.1485 7.24 56.1485 7.048C56.1485 6.936 56.2045 6.856 56.3165 6.808C56.4765 6.76 56.6445 6.728 56.8205 6.712C56.9965 6.68 57.1645 6.656 57.3245 6.64C57.7565 6.56 58.1885 6.48 58.6205 6.4C59.0525 6.32 59.4845 6.224 59.9165 6.112C60.0605 6.16 60.1645 6.248 60.2285 6.376C60.2605 6.44 60.2845 6.616 60.3005 6.904C60.3165 7.192 60.3245 7.528 60.3245 7.912C60.3245 8.28 60.3245 8.632 60.3245 8.968C60.3245 9.288 60.3245 9.512 60.3245 9.64C60.6765 9.08 61.0765 8.52 61.5245 7.96C61.9725 7.4 62.4845 6.936 63.0605 6.568C63.6365 6.2 64.2845 6.016 65.0045 6.016C65.3885 6.016 65.6365 6.136 65.7485 6.376C65.8605 6.616 65.9325 6.896 65.9645 7.216C65.9965 7.392 66.0205 7.576 66.0365 7.768C66.0685 7.96 66.0845 8.144 66.0845 8.32ZM89.6366 18.616C89.6366 18.68 89.6206 18.752 89.5886 18.832C89.5566 18.912 89.5006 18.952 89.4206 18.952C88.9246 18.952 88.4206 18.96 87.9086 18.976C87.4126 18.976 86.9086 18.976 86.3966 18.976C86.1406 18.976 85.8926 18.968 85.6526 18.952C85.4286 18.92 85.2206 18.816 85.0286 18.64C84.9646 18.592 84.9086 18.536 84.8606 18.472C84.8126 18.408 84.7646 18.344 84.7166 18.28C82.7326 15.512 80.6526 12.784 78.4766 10.096L77.6366 10.792V17.728C77.6366 18 77.7646 18.176 78.0206 18.256C78.2766 18.336 78.5646 18.376 78.8846 18.376C79.2046 18.36 79.4446 18.352 79.6046 18.352C79.8126 18.352 79.9166 18.456 79.9166 18.664C79.9166 18.872 79.8286 18.976 79.6526 18.976C79.1086 18.976 78.5726 18.96 78.0446 18.928C77.5166 18.896 76.9806 18.88 76.4366 18.88C75.9086 18.88 75.3726 18.888 74.8286 18.904C74.3006 18.92 73.7726 18.944 73.2446 18.976C73.1166 18.896 73.0526 18.784 73.0526 18.64C73.0526 18.528 73.0606 18.456 73.0766 18.424C73.1086 18.392 73.1806 18.368 73.2926 18.352C73.3886 18.336 73.4846 18.336 73.5806 18.352C73.6766 18.352 73.7726 18.352 73.8686 18.352C74.0126 18.352 74.1886 18.344 74.3966 18.328C74.6206 18.312 74.8126 18.264 74.9726 18.184C75.1486 18.088 75.2366 17.936 75.2366 17.728V2.656C75.2366 2.496 75.1246 2.352 74.9006 2.224C74.6926 2.096 74.5246 2.032 74.3966 2.032H73.8686C73.7566 2.032 73.6526 2.04 73.5566 2.056C73.4606 2.056 73.3566 2.056 73.2446 2.056C73.0846 2.056 72.9966 2.008 72.9806 1.912C72.9646 1.816 72.9566 1.712 72.9566 1.6C72.9566 1.472 73.0126 1.408 73.1246 1.408C73.6846 1.408 74.2366 1.424 74.7806 1.456C75.3406 1.488 75.8926 1.504 76.4366 1.504C76.9486 1.504 77.4526 1.488 77.9486 1.456C78.4606 1.424 78.9646 1.408 79.4606 1.408C79.6526 1.408 79.7486 1.52 79.7486 1.744C79.7486 1.808 79.7246 1.88 79.6766 1.96C79.6446 2.024 79.5886 2.056 79.5086 2.056C79.3326 2.056 79.1566 2.056 78.9806 2.056C78.8046 2.04 78.6286 2.032 78.4526 2.032C78.2766 2.032 78.0926 2.088 77.9006 2.2C77.7246 2.312 77.6366 2.464 77.6366 2.656V6.304C77.6366 6.928 77.6366 7.552 77.6366 8.176C77.6366 8.8 77.6286 9.424 77.6126 10.048C79.2126 8.544 80.7806 7 82.3166 5.416C82.8926 4.808 83.4526 4.208 83.9966 3.616C84.5406 3.008 85.0606 2.376 85.5566 1.72C85.6686 1.56 85.7966 1.48 85.9406 1.48C86.1806 1.48 86.4206 1.488 86.6606 1.504C86.9006 1.504 87.1406 1.504 87.3806 1.504C87.5886 1.504 87.7886 1.504 87.9806 1.504C88.1886 1.488 88.3966 1.48 88.6046 1.48C88.6846 1.48 88.7326 1.52 88.7486 1.6C88.7806 1.664 88.7966 1.728 88.7966 1.792C88.7966 1.856 88.7726 1.928 88.7246 2.008C88.6926 2.072 88.6366 2.104 88.5566 2.104C88.1086 2.104 87.6846 2.168 87.2846 2.296C86.8846 2.424 86.5166 2.648 86.1806 2.968L80.2286 8.632C81.4286 10.168 82.6446 11.704 83.8766 13.24C85.1246 14.76 86.4046 16.248 87.7166 17.704C87.9566 17.96 88.2206 18.12 88.5086 18.184C88.8126 18.248 89.0766 18.296 89.3006 18.328C89.5246 18.36 89.6366 18.456 89.6366 18.616ZM97.2369 18.64C97.2369 18.72 97.2129 18.8 97.1649 18.88C97.1169 18.944 97.0529 18.976 96.9729 18.976C96.5249 18.976 96.0769 18.968 95.6289 18.952C95.1969 18.92 94.7489 18.904 94.2849 18.904H93.6369C93.1569 18.904 92.6769 18.92 92.1969 18.952C91.7329 18.968 91.2689 18.976 90.8049 18.976C90.7409 18.976 90.6929 18.936 90.6609 18.856C90.6449 18.776 90.6369 18.712 90.6369 18.664C90.6369 18.584 90.6449 18.528 90.6609 18.496C90.6769 18.448 90.7249 18.416 90.8049 18.4C90.8849 18.368 90.9729 18.36 91.0689 18.376C91.1809 18.376 91.2849 18.376 91.3809 18.376C91.4929 18.376 91.5969 18.384 91.6929 18.4C91.7889 18.4 91.8929 18.4 92.0049 18.4C92.2289 18.4 92.4289 18.352 92.6049 18.256C92.7969 18.144 92.8929 17.96 92.8929 17.704V8.104C92.8929 7.832 92.8449 7.624 92.7489 7.48C92.6529 7.32 92.4529 7.24 92.1489 7.24C91.9249 7.24 91.6929 7.256 91.4529 7.288C91.2289 7.304 91.0049 7.328 90.7809 7.36C90.6529 7.36 90.5889 7.288 90.5889 7.144C90.5889 6.984 90.6529 6.88 90.7809 6.832C90.9729 6.768 91.1729 6.728 91.3809 6.712C91.6049 6.68 91.8129 6.648 92.0049 6.616C92.4529 6.536 92.9009 6.448 93.3489 6.352C93.7969 6.256 94.2369 6.152 94.6689 6.04C94.7169 6.024 94.7809 6.016 94.8609 6.016C95.0369 6.016 95.1249 6.112 95.1249 6.304C95.1249 8.192 95.1169 10.088 95.1009 11.992C95.1009 13.896 95.1009 15.8 95.1009 17.704C95.1009 17.96 95.2129 18.144 95.4369 18.256C95.6769 18.352 95.9009 18.4 96.1089 18.4C96.2689 18.4 96.4289 18.392 96.5889 18.376C96.7649 18.36 96.9329 18.352 97.0929 18.352C97.1569 18.352 97.1969 18.392 97.2129 18.472C97.2289 18.552 97.2369 18.608 97.2369 18.64ZM95.2929 2.032C95.2929 2.432 95.1489 2.776 94.8609 3.064C94.5729 3.336 94.2289 3.472 93.8289 3.472C93.4289 3.472 93.0849 3.336 92.7969 3.064C92.5089 2.776 92.3649 2.432 92.3649 2.032C92.3649 1.632 92.5089 1.296 92.7969 1.024C93.0849 0.736 93.4289 0.592 93.8289 0.592C94.2289 0.592 94.5729 0.736 94.8609 1.024C95.1489 1.296 95.2929 1.632 95.2929 2.032ZM118.351 6.328C118.351 6.536 118.247 6.64 118.039 6.64C117.847 6.624 117.687 6.616 117.559 6.616C117.367 6.616 117.183 6.648 117.007 6.712C116.847 6.76 116.727 6.88 116.647 7.072C116.583 7.248 116.519 7.432 116.455 7.624C116.407 7.816 116.351 8 116.287 8.176L115.447 10.84L112.831 18.952L110.767 19.072C110.287 17.424 109.799 15.784 109.303 14.152C108.823 12.52 108.343 10.888 107.863 9.256C107.367 10.872 106.871 12.488 106.375 14.104C105.895 15.72 105.383 17.336 104.839 18.952L102.703 19.072C102.367 17.792 102.015 16.512 101.647 15.232C101.295 13.952 100.959 12.672 100.639 11.392C100.495 10.784 100.343 10.168 100.183 9.544C100.023 8.92 99.8549 8.312 99.6789 7.72C99.6149 7.496 99.5269 7.312 99.4149 7.168C99.3189 7.024 99.1349 6.952 98.8629 6.952C98.7509 6.952 98.6309 6.96 98.5029 6.976C98.3909 6.992 98.2709 7 98.1429 7C97.9829 7 97.9029 6.904 97.9029 6.712C97.9029 6.568 97.9829 6.472 98.1429 6.424C98.3669 6.36 98.6229 6.32 98.9109 6.304C99.1989 6.288 99.4629 6.264 99.7029 6.232C99.9749 6.2 100.247 6.16 100.519 6.112C100.791 6.064 101.055 6.04 101.311 6.04C101.455 6.04 101.559 6.128 101.623 6.304C101.703 6.464 101.759 6.648 101.791 6.856C101.839 7.048 101.871 7.192 101.887 7.288C102.287 9.08 102.703 10.856 103.135 12.616C103.567 14.376 103.975 16.152 104.359 17.944C104.775 16.616 105.167 15.296 105.535 13.984C105.919 12.656 106.295 11.336 106.663 10.024C106.775 9.624 106.887 9.232 106.999 8.848C107.127 8.448 107.239 8.048 107.335 7.648C107.383 7.456 107.423 7.256 107.455 7.048C107.487 6.84 107.535 6.64 107.599 6.448C107.679 6.24 107.831 6.136 108.055 6.136C108.295 6.136 108.495 6.136 108.655 6.136C108.927 6.136 109.079 6.256 109.111 6.496C109.159 6.72 109.215 6.944 109.279 7.168C109.791 8.96 110.295 10.752 110.791 12.544C111.303 14.32 111.815 16.096 112.327 17.872C112.695 16.688 113.055 15.512 113.407 14.344C113.759 13.16 114.095 11.968 114.415 10.768C114.575 10.208 114.735 9.64 114.895 9.064C115.055 8.472 115.199 7.888 115.327 7.312C115.343 7.232 115.351 7.16 115.351 7.096C115.367 7.016 115.375 6.944 115.375 6.88C115.375 6.736 115.271 6.648 115.063 6.616C114.855 6.584 114.639 6.576 114.415 6.592C114.191 6.592 114.039 6.592 113.959 6.592C113.783 6.592 113.695 6.504 113.695 6.328C113.695 6.152 113.775 6.064 113.935 6.064H118.087C118.263 6.064 118.351 6.152 118.351 6.328ZM125.924 18.64C125.924 18.72 125.9 18.8 125.852 18.88C125.804 18.944 125.74 18.976 125.66 18.976C125.212 18.976 124.764 18.968 124.316 18.952C123.884 18.92 123.436 18.904 122.972 18.904H122.324C121.844 18.904 121.364 18.92 120.884 18.952C120.42 18.968 119.956 18.976 119.492 18.976C119.428 18.976 119.38 18.936 119.348 18.856C119.332 18.776 119.324 18.712 119.324 18.664C119.324 18.584 119.332 18.528 119.348 18.496C119.364 18.448 119.412 18.416 119.492 18.4C119.572 18.368 119.66 18.36 119.756 18.376C119.868 18.376 119.972 18.376 120.068 18.376C120.18 18.376 120.284 18.384 120.38 18.4C120.476 18.4 120.58 18.4 120.692 18.4C120.916 18.4 121.116 18.352 121.292 18.256C121.484 18.144 121.58 17.96 121.58 17.704V8.104C121.58 7.832 121.532 7.624 121.436 7.48C121.34 7.32 121.14 7.24 120.836 7.24C120.612 7.24 120.38 7.256 120.14 7.288C119.916 7.304 119.692 7.328 119.468 7.36C119.34 7.36 119.276 7.288 119.276 7.144C119.276 6.984 119.34 6.88 119.468 6.832C119.66 6.768 119.86 6.728 120.068 6.712C120.292 6.68 120.5 6.648 120.692 6.616C121.14 6.536 121.588 6.448 122.036 6.352C122.484 6.256 122.924 6.152 123.356 6.04C123.404 6.024 123.468 6.016 123.548 6.016C123.724 6.016 123.812 6.112 123.812 6.304C123.812 8.192 123.804 10.088 123.788 11.992C123.788 13.896 123.788 15.8 123.788 17.704C123.788 17.96 123.9 18.144 124.124 18.256C124.364 18.352 124.588 18.4 124.796 18.4C124.956 18.4 125.116 18.392 125.276 18.376C125.452 18.36 125.62 18.352 125.78 18.352C125.844 18.352 125.884 18.392 125.9 18.472C125.916 18.552 125.924 18.608 125.924 18.64ZM123.98 2.032C123.98 2.432 123.836 2.776 123.548 3.064C123.26 3.336 122.916 3.472 122.516 3.472C122.116 3.472 121.772 3.336 121.484 3.064C121.196 2.776 121.052 2.432 121.052 2.032C121.052 1.632 121.196 1.296 121.484 1.024C121.772 0.736 122.116 0.592 122.516 0.592C122.916 0.592 123.26 0.736 123.548 1.024C123.836 1.296 123.98 1.632 123.98 2.032ZM4.44531 41.2197C3.98145 41.2197 3.5249 41.1196 3.07568 40.9194C2.63135 40.7144 2.23096 40.4189 1.87451 40.0332C1.51807 39.6426 1.23242 39.1689 1.01758 38.6123C0.807617 38.0508 0.702637 37.416 0.702637 36.708C0.702637 35.668 0.905273 34.7622 1.31055 33.9907C1.7207 33.2192 2.26758 32.6211 2.95117 32.1963C3.63477 31.7666 4.38916 31.5518 5.21436 31.5518C5.73682 31.5518 6.21289 31.625 6.64258 31.7715C7.07715 31.9131 7.42139 32.084 7.67529 32.2842C7.70947 32.3135 7.68262 32.4062 7.59473 32.5625C7.50684 32.7139 7.39941 32.8726 7.27246 33.0386C7.15039 33.2046 7.05273 33.3267 6.97949 33.4048L6.6499 33.3389C6.40088 33.0459 6.10791 32.8188 5.771 32.6577C5.43408 32.4917 5.05566 32.4087 4.63574 32.4087C4.38672 32.4087 4.11328 32.4771 3.81543 32.6138C3.52246 32.7505 3.24414 32.9751 2.98047 33.2876C2.7168 33.5952 2.49951 34.0078 2.32861 34.5254C2.1626 35.0381 2.07959 35.6753 2.07959 36.437C2.07959 37.2915 2.23096 37.9995 2.53369 38.561C2.83643 39.1226 3.21484 39.5425 3.66895 39.8208C4.12305 40.0942 4.57715 40.231 5.03125 40.231C5.29492 40.231 5.63916 40.1479 6.06396 39.9819C6.49365 39.8159 6.97461 39.5107 7.50684 39.0664C7.55566 39.0957 7.61182 39.1567 7.67529 39.2495C7.73877 39.3423 7.78516 39.4106 7.81445 39.4546C7.18945 40.1138 6.60107 40.5728 6.04932 40.8315C5.50244 41.0903 4.96777 41.2197 4.44531 41.2197ZM15.5195 34.335C15.5146 34.4473 15.4951 34.6182 15.4609 34.8477C15.4316 35.0771 15.395 35.3237 15.3511 35.5874C15.3071 35.8511 15.2632 36.0952 15.2192 36.3198C15.1802 36.5444 15.146 36.708 15.1167 36.8105H14.6992C14.6797 36.5029 14.6504 36.2051 14.6113 35.917C14.5771 35.624 14.5259 35.3848 14.4575 35.1992C14.394 35.0137 14.311 34.9209 14.2085 34.9209H11.8354L12.0112 34.1885H15.3071L15.5195 34.335ZM9.9751 34.9209C9.81885 34.9209 9.64795 35.0918 9.4624 35.4336C9.28174 35.7705 9.13281 36.2051 9.01562 36.7373H8.59814C8.59814 36.6299 8.60303 36.4614 8.61279 36.2319C8.62744 35.9976 8.64697 35.7461 8.67139 35.4775C8.6958 35.2041 8.72021 34.9502 8.74463 34.7158C8.77393 34.4766 8.80322 34.3008 8.83252 34.1885H12.4434L11.8867 34.9209H9.9751ZM10.0703 41V40.6118C10.4023 40.5435 10.6904 40.4653 10.9346 40.3774C11.1787 40.2896 11.3008 40.1943 11.3008 40.0918V34.7305C11.3008 34.6719 11.2202 34.6328 11.0591 34.6133C10.9028 34.5889 10.6465 34.5767 10.29 34.5767V34.1885H13.6226V34.5767C12.9536 34.5815 12.6191 34.6328 12.6191 34.7305V40.0918C12.6191 40.1846 12.7339 40.2773 12.9634 40.3701C13.1929 40.4629 13.4858 40.5435 13.8423 40.6118V41H10.0703ZM23.1367 34.5767C22.8438 34.645 22.6484 34.7109 22.5508 34.7744C22.458 34.833 22.3848 34.9331 22.3311 35.0747L19.8848 41.5786C19.4795 42.6626 18.9912 43.4438 18.4199 43.9224C17.8535 44.4009 17.3042 44.6401 16.772 44.6401C16.396 44.6401 16.0762 44.5913 15.8125 44.4937C15.5537 44.4009 15.4243 44.3081 15.4243 44.2153C15.4243 44.1714 15.4805 44.0737 15.5928 43.9224C15.7002 43.771 15.8271 43.6147 15.9736 43.4536C16.1201 43.2925 16.2471 43.1802 16.3545 43.1167C16.4912 43.2046 16.6328 43.2681 16.7793 43.3071C16.9258 43.3462 17.0674 43.3657 17.2041 43.3657C17.3652 43.3657 17.5264 43.3389 17.6875 43.2852C17.8682 43.2266 18.0806 43.0483 18.3247 42.7505C18.5688 42.4526 18.7788 42.0938 18.9546 41.6738L19.167 41.1685L16.7427 35.0747C16.689 34.938 16.6011 34.8354 16.479 34.7671C16.3569 34.6938 16.1738 34.6304 15.9297 34.5767V34.1885H18.9253V34.5767C18.5542 34.6255 18.3149 34.6816 18.2075 34.7451C18.105 34.8037 18.0854 34.9136 18.1489 35.0747L19.8555 39.4106L21.4448 35.0747C21.4937 34.9282 21.4619 34.8232 21.3496 34.7598C21.2422 34.6914 21.0176 34.6304 20.6758 34.5767V34.1885H23.1367V34.5767ZM30.9517 40.2676L31.1567 40.4287C31.1421 40.6875 31.1104 40.978 31.0615 41.3003C31.0127 41.6274 30.9565 41.9521 30.8931 42.2744C30.8296 42.6016 30.7661 42.897 30.7026 43.1606C30.6392 43.4292 30.583 43.6367 30.5342 43.7832H30.1167C30.1362 43.3389 30.1216 42.9019 30.0728 42.4722C30.0288 42.0474 29.958 41.6958 29.8604 41.4175C29.7627 41.1392 29.6479 41 29.5161 41H25.1362C24.9214 41 24.687 41.2417 24.4331 41.7251C24.1792 42.2085 23.9546 42.8945 23.7593 43.7832H23.3418C23.3418 43.5342 23.3491 43.2388 23.3638 42.897C23.3784 42.5601 23.3955 42.2158 23.415 41.8643C23.4395 41.5176 23.4663 41.2026 23.4956 40.9194C23.5249 40.6313 23.5591 40.4141 23.5981 40.2676H24.5283C24.9238 39.4912 25.2559 38.6392 25.5244 37.7114C25.7979 36.7837 25.9761 35.8877 26.0591 35.0234C26.0493 34.96 25.9346 34.8867 25.7148 34.8037C25.5 34.7158 25.2339 34.6401 24.9165 34.5767V34.1885H30.8271V34.5767C30.1582 34.7085 29.8237 34.8574 29.8237 35.0234V40.2676H30.9517ZM28.5054 40.2676V34.9209H27.0625C26.9453 35.8486 26.772 36.7788 26.5425 37.7114C26.313 38.6392 26.0518 39.4912 25.7588 40.2676H28.5054ZM33.5811 40.6411V39.6523L37.9316 34.8184V35.8145L33.5811 40.6411ZM31.8306 41V40.6118C32.4995 40.4751 32.834 40.3262 32.834 40.165V35.0234C32.834 34.9648 32.7534 34.8916 32.5923 34.8037C32.436 34.7158 32.1821 34.6401 31.8306 34.5767V34.1885H35.1777V34.5767C34.4941 34.7134 34.1523 34.8623 34.1523 35.0234V40.165C34.1523 40.2236 34.2329 40.2969 34.394 40.3848C34.5601 40.4678 34.8213 40.5435 35.1777 40.6118V41H31.8306ZM36.6279 41V40.6118C37.2969 40.4751 37.6313 40.3262 37.6313 40.165V35.0234C37.6313 34.9648 37.5508 34.8916 37.3896 34.8037C37.2334 34.7158 36.9795 34.6401 36.6279 34.5767V34.1885H39.9751V34.5767C39.2915 34.7134 38.9497 34.8623 38.9497 35.0234V40.165C38.9497 40.2236 39.0303 40.2969 39.1914 40.3848C39.3574 40.4678 39.6187 40.5435 39.9751 40.6118V41H36.6279ZM44.7725 33.9688C45.2168 33.9688 45.7075 34.0029 46.2446 34.0713C46.7866 34.1396 47.248 34.2153 47.6289 34.2983L47.5776 34.8477C47.2993 34.8086 46.9893 34.772 46.6475 34.7378C46.3105 34.6987 45.9785 34.667 45.6514 34.6426C45.3291 34.6182 45.0508 34.606 44.8164 34.606C44.123 34.606 43.6274 34.7134 43.3296 34.9282C43.0317 35.1431 42.8828 35.4312 42.8828 35.7925C42.8828 36.686 43.5054 37.1328 44.7505 37.1328H45.395L45.3511 37.8652H44.6479C44.0474 37.8652 43.5127 37.7993 43.0439 37.6675C42.5752 37.5308 42.2041 37.3184 41.9307 37.0303C41.6621 36.7373 41.5278 36.3589 41.5278 35.895C41.5278 35.5825 41.6377 35.2798 41.8574 34.9868C42.082 34.689 42.4336 34.4448 42.9121 34.2544C43.3906 34.064 44.0107 33.9688 44.7725 33.9688ZM44.4648 41V40.6118C44.8262 40.5142 45.0459 40.4336 45.124 40.3701C45.207 40.3066 45.2485 40.2383 45.2485 40.165V34.291L46.5669 34.4375V40.165C46.5669 40.2529 46.6548 40.3311 46.8306 40.3994C47.0063 40.4678 47.2554 40.5386 47.5776 40.6118V41H44.4648ZM40.4365 40.4653C40.7441 40.4897 40.9712 40.4897 41.1177 40.4653C41.269 40.436 41.396 40.3359 41.4985 40.165L43.3296 37.2134L44.2451 37.6309L42.6631 40.8462C42.6143 40.939 42.5239 41.0122 42.3921 41.0659C42.2651 41.1196 42.1333 41.1465 41.9966 41.1465C41.7964 41.1465 41.5449 41.1172 41.2422 41.0586C40.9443 41 40.6465 40.9292 40.3486 40.8462L40.4365 40.4653ZM56.3887 33.9468C57.8047 33.9468 58.8911 34.252 59.6479 34.8623C60.4048 35.4678 60.7832 36.3735 60.7832 37.5796C60.7832 38.7124 60.3804 39.6011 59.5747 40.2456C58.769 40.8853 57.6582 41.2051 56.2422 41.2051C54.8262 41.2051 53.7349 40.8926 52.9683 40.2676C52.2065 39.6426 51.8257 38.7466 51.8257 37.5796C51.8257 36.4126 52.231 35.5166 53.0415 34.8916C53.8521 34.2617 54.9678 33.9468 56.3887 33.9468ZM56.3081 40.5093C57.2749 40.5093 58.0293 40.2944 58.5713 39.8647C59.1182 39.4302 59.3916 38.6636 59.3916 37.5649C59.3916 36.7251 59.1182 36.0293 58.5713 35.4775C58.0293 34.9209 57.2017 34.6426 56.0884 34.6426C55.1899 34.6426 54.4868 34.8647 53.979 35.3091C53.4712 35.7534 53.2173 36.5054 53.2173 37.5649C53.2173 38.1265 53.3345 38.6294 53.5688 39.0737C53.8032 39.5181 54.1499 39.8696 54.6089 40.1284C55.0679 40.3823 55.6343 40.5093 56.3081 40.5093ZM56.916 43.6807C56.916 43.7393 56.9966 43.8101 57.1577 43.8931C57.3237 43.981 57.585 44.0591 57.9414 44.1274V44.5156H54.5723V44.1274C55.2559 43.9907 55.5977 43.8418 55.5977 43.6807V32.2402C55.5977 31.9473 55.5684 31.7373 55.5098 31.6104C55.4561 31.4834 55.3535 31.4004 55.2021 31.3613C55.0557 31.3174 54.8457 31.2832 54.5723 31.2588V30.8926C54.9238 30.834 55.2803 30.7607 55.6416 30.6729C56.0029 30.5801 56.335 30.458 56.6377 30.3066L56.916 30.5703V43.6807ZM68.4443 37.4478C68.4443 37.936 68.354 38.4048 68.1733 38.854C67.9927 39.3032 67.7437 39.7061 67.4263 40.0625C67.1089 40.4189 66.7427 40.7021 66.3276 40.9121C65.9175 41.1172 65.4854 41.2197 65.0312 41.2197C64.3965 41.2197 63.8423 41.0684 63.3687 40.7656C62.8999 40.4629 62.5361 40.0503 62.2773 39.5278C62.0186 39.0054 61.8892 38.4121 61.8892 37.748C61.8892 37.2646 61.9746 36.7983 62.1455 36.3491C62.3213 35.895 62.5654 35.4897 62.8779 35.1333C63.1904 34.772 63.5542 34.4888 63.9692 34.2837C64.3843 34.0737 64.8335 33.9688 65.3169 33.9688C65.9468 33.9688 66.4961 34.1201 66.9648 34.4229C67.4336 34.7256 67.7974 35.1382 68.0562 35.6606C68.3149 36.1831 68.4443 36.7788 68.4443 37.4478ZM67.0747 37.7041C67.0747 37.1865 66.9795 36.7104 66.7891 36.2759C66.5986 35.8364 66.3521 35.4824 66.0493 35.2139C65.7515 34.9453 65.4365 34.811 65.1045 34.811C64.6357 34.811 64.2671 34.9307 63.9985 35.1699C63.7349 35.4092 63.5469 35.7363 63.4346 36.1514C63.3223 36.5615 63.2661 37.0229 63.2661 37.5356C63.2661 38.0483 63.3662 38.522 63.5664 38.9565C63.7715 39.3862 64.0254 39.7305 64.3281 39.9893C64.6309 40.248 64.9336 40.3774 65.2363 40.3774C65.8906 40.3774 66.3594 40.1382 66.6426 39.6597C66.9307 39.1812 67.0747 38.5293 67.0747 37.7041ZM76.1348 34.335C76.1299 34.4473 76.1104 34.6182 76.0762 34.8477C76.0469 35.0771 76.0103 35.3237 75.9663 35.5874C75.9224 35.8511 75.8784 36.0952 75.8345 36.3198C75.7954 36.5444 75.7612 36.708 75.7319 36.8105H75.3145C75.2949 36.5029 75.2656 36.2051 75.2266 35.917C75.1924 35.624 75.1411 35.3848 75.0728 35.1992C75.0093 35.0137 74.9263 34.9209 74.8237 34.9209H72.4507L72.6265 34.1885H75.9224L76.1348 34.335ZM70.5903 34.9209C70.4341 34.9209 70.2632 35.0918 70.0776 35.4336C69.897 35.7705 69.748 36.2051 69.6309 36.7373H69.2134C69.2134 36.6299 69.2183 36.4614 69.228 36.2319C69.2427 35.9976 69.2622 35.7461 69.2866 35.4775C69.311 35.2041 69.3354 34.9502 69.3599 34.7158C69.3892 34.4766 69.4185 34.3008 69.4478 34.1885H73.0586L72.502 34.9209H70.5903ZM70.6855 41V40.6118C71.0176 40.5435 71.3057 40.4653 71.5498 40.3774C71.7939 40.2896 71.916 40.1943 71.916 40.0918V34.7305C71.916 34.6719 71.8354 34.6328 71.6743 34.6133C71.5181 34.5889 71.2617 34.5767 70.9053 34.5767V34.1885H74.2378V34.5767C73.5688 34.5815 73.2344 34.6328 73.2344 34.7305V40.0918C73.2344 40.1846 73.3491 40.2773 73.5786 40.3701C73.8081 40.4629 74.1011 40.5435 74.4575 40.6118V41H70.6855ZM83.3564 37.4478C83.3564 37.936 83.2661 38.4048 83.0854 38.854C82.9048 39.3032 82.6558 39.7061 82.3384 40.0625C82.021 40.4189 81.6548 40.7021 81.2397 40.9121C80.8296 41.1172 80.3975 41.2197 79.9434 41.2197C79.3086 41.2197 78.7544 41.0684 78.2808 40.7656C77.812 40.4629 77.4482 40.0503 77.1895 39.5278C76.9307 39.0054 76.8013 38.4121 76.8013 37.748C76.8013 37.2646 76.8867 36.7983 77.0576 36.3491C77.2334 35.895 77.4775 35.4897 77.79 35.1333C78.1025 34.772 78.4663 34.4888 78.8813 34.2837C79.2964 34.0737 79.7456 33.9688 80.229 33.9688C80.8589 33.9688 81.4082 34.1201 81.877 34.4229C82.3457 34.7256 82.7095 35.1382 82.9683 35.6606C83.2271 36.1831 83.3564 36.7788 83.3564 37.4478ZM81.9868 37.7041C81.9868 37.1865 81.8916 36.7104 81.7012 36.2759C81.5107 35.8364 81.2642 35.4824 80.9614 35.2139C80.6636 34.9453 80.3486 34.811 80.0166 34.811C79.5479 34.811 79.1792 34.9307 78.9106 35.1699C78.647 35.4092 78.459 35.7363 78.3467 36.1514C78.2344 36.5615 78.1782 37.0229 78.1782 37.5356C78.1782 38.0483 78.2783 38.522 78.4785 38.9565C78.6836 39.3862 78.9375 39.7305 79.2402 39.9893C79.543 40.248 79.8457 40.3774 80.1484 40.3774C80.8027 40.3774 81.2715 40.1382 81.5547 39.6597C81.8428 39.1812 81.9868 38.5293 81.9868 37.7041ZM88.6592 41V40.6118C88.9766 40.5483 89.2231 40.4775 89.3989 40.3994C89.5747 40.3164 89.6626 40.2432 89.6626 40.1797V34.9209H86.623V40.165C86.623 40.2236 86.7012 40.2969 86.8574 40.3848C87.0186 40.4678 87.2773 40.5435 87.6338 40.6118V41H84.3013V40.6118C84.9702 40.4751 85.3047 40.3262 85.3047 40.165V35.0161C85.3047 34.9575 85.2217 34.8867 85.0557 34.8037C84.8945 34.7158 84.6431 34.6401 84.3013 34.5767V34.1885H91.9917V34.5767C91.3179 34.7085 90.981 34.8574 90.981 35.0234V40.165C90.981 40.2236 91.0591 40.2969 91.2153 40.3848C91.3765 40.4678 91.6353 40.5435 91.9917 40.6118V41H88.6592ZM98.8691 36.9351C98.7812 37.0376 98.6519 37.1377 98.481 37.2354C98.3101 37.3281 98.1465 37.4038 97.9902 37.4624H93.7129L93.7275 36.752H97.2065C97.3188 36.752 97.3921 36.7349 97.4263 36.7007C97.4653 36.6616 97.4849 36.5908 97.4849 36.4883C97.4849 36.3076 97.4458 36.083 97.3677 35.8145C97.2944 35.541 97.1553 35.2993 96.9502 35.0894C96.7451 34.8794 96.4448 34.7744 96.0493 34.7744C95.4829 34.7744 95.0435 35.0186 94.731 35.5068C94.4233 35.9951 94.2695 36.6177 94.2695 37.3745C94.2695 37.8823 94.3501 38.3486 94.5112 38.7734C94.6724 39.1982 94.9067 39.5376 95.2144 39.7915C95.522 40.0454 95.8931 40.1724 96.3276 40.1724C96.5327 40.1724 96.7305 40.1528 96.9209 40.1138C97.1162 40.0747 97.3384 39.9868 97.5874 39.8501C97.8364 39.7134 98.1465 39.501 98.5176 39.2129C98.5811 39.2471 98.6421 39.3057 98.7007 39.3887C98.7642 39.4717 98.8057 39.5327 98.8252 39.5718C98.3857 40.0405 98.0073 40.3945 97.6899 40.6338C97.3726 40.8682 97.0698 41.0244 96.7817 41.1025C96.4937 41.1807 96.1738 41.2197 95.8223 41.2197C95.3047 41.2197 94.8262 41.0781 94.3867 40.7949C93.9473 40.5117 93.5933 40.1138 93.3247 39.6011C93.061 39.0884 92.9292 38.4878 92.9292 37.7993C92.9292 37.1401 93.0659 36.5273 93.3394 35.9609C93.6177 35.3945 94.0083 34.9355 94.5112 34.584C94.7407 34.4229 95.0166 34.2812 95.3389 34.1592C95.666 34.0322 95.9785 33.9688 96.2764 33.9688C96.7549 33.9688 97.1577 34.0591 97.4849 34.2397C97.8169 34.4155 98.0854 34.6499 98.2905 34.9429C98.4956 35.2358 98.6421 35.5581 98.73 35.9097C98.8228 36.2563 98.8691 36.5981 98.8691 36.9351ZM102.832 34.1885V34.5767C102.524 34.6353 102.307 34.7109 102.18 34.8037C102.053 34.8916 101.989 34.9648 101.989 35.0234V36.2832C101.989 36.7324 102.111 37.0645 102.355 37.2793C102.6 37.4893 102.893 37.5942 103.234 37.5942C103.425 37.5942 103.615 37.5845 103.806 37.5649C103.996 37.5405 104.218 37.5015 104.472 37.4478C104.731 37.394 105.053 37.3159 105.439 37.2134V37.8652C104.863 38.041 104.362 38.168 103.938 38.2461C103.513 38.3242 103.09 38.3633 102.67 38.3633C102.412 38.3633 102.126 38.3169 101.813 38.2241C101.501 38.1265 101.232 37.9556 101.008 37.7114C100.783 37.4624 100.671 37.1133 100.671 36.6641V35.0234C100.671 34.9648 100.595 34.8916 100.444 34.8037C100.292 34.7158 100.034 34.6401 99.6675 34.5767V34.1885H102.832ZM103.696 41V40.6118C104.028 40.5435 104.284 40.4678 104.465 40.3848C104.65 40.3018 104.743 40.2285 104.743 40.165V35.0234C104.743 34.9648 104.682 34.8916 104.56 34.8037C104.438 34.7109 104.218 34.6353 103.901 34.5767V34.1885H107.065V34.5767C106.396 34.7085 106.062 34.8574 106.062 35.0234V40.165C106.062 40.2236 106.14 40.2969 106.296 40.3848C106.452 40.4678 106.708 40.5435 107.065 40.6118V41H103.696ZM112.69 41.2197C112.504 41.2197 112.355 41.0928 112.243 40.8389C112.131 40.5801 112.075 40.2334 112.075 39.7988V35.895C112.075 35.5728 111.967 35.3042 111.752 35.0894C111.538 34.8696 111.21 34.7646 110.771 34.7744C110.483 34.7793 110.256 34.8525 110.09 34.9941C109.924 35.1309 109.855 35.3457 109.885 35.6387C109.89 35.6875 109.829 35.7412 109.702 35.7998C109.58 35.8584 109.428 35.9146 109.248 35.9683C109.072 36.022 108.903 36.0635 108.742 36.0928C108.586 36.1221 108.479 36.1294 108.42 36.1147L108.303 35.7925C108.435 35.4458 108.662 35.1357 108.984 34.8623C109.311 34.5889 109.689 34.3716 110.119 34.2104C110.554 34.0493 111 33.9688 111.459 33.9688C112.036 33.9688 112.502 34.1201 112.858 34.4229C113.215 34.7207 113.393 35.1187 113.393 35.6167V39.5498C113.393 39.9307 113.491 40.1211 113.686 40.1211C113.754 40.1211 113.837 40.1089 113.935 40.0845C114.038 40.0552 114.187 40.0015 114.382 39.9233L114.514 40.3262C114.099 40.6094 113.728 40.8291 113.4 40.9854C113.073 41.1416 112.836 41.2197 112.69 41.2197ZM109.672 41.2197C109.423 41.2197 109.174 41.1636 108.925 41.0513C108.681 40.9438 108.476 40.7729 108.31 40.5386C108.144 40.3042 108.061 39.9966 108.061 39.6157C108.061 39.23 108.142 38.8662 108.303 38.5244C108.469 38.1777 108.74 37.8896 109.116 37.6602C109.497 37.4258 110.007 37.2817 110.646 37.228L112.895 37.0522L112.968 37.6382L111.203 37.7627C110.529 37.8115 110.073 37.9751 109.833 38.2534C109.599 38.5317 109.482 38.8687 109.482 39.2642C109.482 39.5132 109.528 39.7012 109.621 39.8281C109.714 39.9551 109.821 40.043 109.943 40.0918C110.065 40.1357 110.168 40.1577 110.251 40.1577C110.515 40.1577 110.803 40.0845 111.115 39.938C111.428 39.7866 111.777 39.54 112.163 39.1982L112.221 39.8281C111.762 40.3262 111.306 40.6826 110.852 40.8975C110.397 41.1123 110.004 41.2197 109.672 41.2197ZM121.735 34.335C121.73 34.4473 121.711 34.6182 121.677 34.8477C121.647 35.0771 121.611 35.3237 121.567 35.5874C121.523 35.8511 121.479 36.0952 121.435 36.3198C121.396 36.5444 121.362 36.708 121.333 36.8105H120.915C120.896 36.5029 120.866 36.2051 120.827 35.917C120.793 35.624 120.742 35.3848 120.673 35.1992C120.61 35.0137 120.527 34.9209 120.424 34.9209H118.051L118.227 34.1885H121.523L121.735 34.335ZM116.191 34.9209C116.035 34.9209 115.864 35.0918 115.678 35.4336C115.498 35.7705 115.349 36.2051 115.231 36.7373H114.814C114.814 36.6299 114.819 36.4614 114.829 36.2319C114.843 35.9976 114.863 35.7461 114.887 35.4775C114.912 35.2041 114.936 34.9502 114.96 34.7158C114.99 34.4766 115.019 34.3008 115.048 34.1885H118.659L118.103 34.9209H116.191ZM116.286 41V40.6118C116.618 40.5435 116.906 40.4653 117.15 40.3774C117.395 40.2896 117.517 40.1943 117.517 40.0918V34.7305C117.517 34.6719 117.436 34.6328 117.275 34.6133C117.119 34.5889 116.862 34.5767 116.506 34.5767V34.1885H119.838V34.5767C119.169 34.5815 118.835 34.6328 118.835 34.7305V40.0918C118.835 40.1846 118.95 40.2773 119.179 40.3701C119.409 40.4629 119.702 40.5435 120.058 40.6118V41H116.286ZM123.991 40.6411V39.6523L128.342 34.8184V35.8145L123.991 40.6411ZM122.241 41V40.6118C122.91 40.4751 123.244 40.3262 123.244 40.165V35.0234C123.244 34.9648 123.164 34.8916 123.002 34.8037C122.846 34.7158 122.592 34.6401 122.241 34.5767V34.1885H125.588V34.5767C124.904 34.7134 124.562 34.8623 124.562 35.0234V40.165C124.562 40.2236 124.643 40.2969 124.804 40.3848C124.97 40.4678 125.231 40.5435 125.588 40.6118V41H122.241ZM127.038 41V40.6118C127.707 40.4751 128.042 40.3262 128.042 40.165V35.0234C128.042 34.9648 127.961 34.8916 127.8 34.8037C127.644 34.7158 127.39 34.6401 127.038 34.5767V34.1885H130.385V34.5767C129.702 34.7134 129.36 34.8623 129.36 35.0234V40.165C129.36 40.2236 129.44 40.2969 129.602 40.3848C129.768 40.4678 130.029 40.5435 130.385 40.6118V41H127.038Z" fill="black"/>
</svg>
